<svg class="generalSvgs" >
	<g id="saita" viewBox="0 0 50 39">
		<path d="M50 0L0 17.6464L12.4031 26.3351L35.2929 11.7679L17.3019 29.7588L17.6464 29.9957V38.2321L21.3932 32.6227L29.4143 38.2321L50 0Z"/>
	</g>
	<g id="pinterest" viewBox="0 0 39 50">
		<path d="M20.4 0C6.9 0 0 9.7 0 17.9C0 22.8 1.9 27.2 5.9 28.8C6.6 29.1 7.1 28.8 7.3 28.1C7.4 27.6 7.7 26.3 7.9 25.8C8.1 25.1 8 24.8 7.5 24.2C6.3 22.8 5.6 21.1 5.6 18.6C5.6 11.4 11 4.9 19.7 4.9C27.4 4.9 31.6 9.6 31.6 15.9C31.6 24.1 28 31.1 22.5 31.1C19.5 31.1 17.3 28.6 18 25.6C18.9 22 20.5 18.1 20.5 15.5C20.5 13.2 19.2 11.2 16.6 11.2C13.5 11.2 11.1 14.4 11.1 18.6C11.1 21.3 12 23.1 12 23.1C12 23.1 8.9 36.3 8.4 38.6C7.3 43.2 8.2 48.9 8.3 49.5C8.3 49.8 8.8 49.9 9 49.7C9.3 49.3 12.9 44.8 14.2 40.3C14.6 39 16.2 32.4 16.2 32.4C17.2 34.3 20.1 36 23.2 36C32.4 36 38.6 27.6 38.6 16.4C38.5 7.9 31.4 0 20.4 0Z"/>
	</g>
	<g id="facebook" viewBox="0 0 23 49">
		<path d="M22.4 15.6H14.8V10.6C14.8 8.7 16 8.3 16.9 8.3C17.8 8.3 22.3 8.3 22.3 8.3V0H14.9C6.6 0 4.8 6.2 4.8 10.1V15.6H0V24.1H4.8C4.8 35 4.8 48.2 4.8 48.2H14.8C14.8 48.2 14.8 34.9 14.8 24.1H21.6L22.4 15.6Z"/>
	</g>
	<g id="mail" viewBox="0 0 26 19">
		<path d="M12.5 9.8L25 0.1V0H0V0.1L12.5 9.8Z"/>
		<path d="M13.4 12.6C13.2 12.8 12.9 12.9 12.6 12.9C12.3 12.9 12 12.8 11.8 12.6L0 3.5V17.4C0 17.8 0.3 18.1 0.7 18.1H24.4C24.8 18.1 25.1 17.8 25.1 17.4V3.5L13.4 12.6Z"/>
	</g>
    <g id="search" >
		<path d="M12.41 12.47L16.02 16.08M14.4 7.7C14.4 11.4003 11.4003 14.4 7.7 14.4C3.99969 14.4 1 11.4003 1 7.7C1 3.99969 3.99969 1 7.7 1C11.4003 1 14.4 3.99969 14.4 7.7Z"  stroke-width="2" stroke-miterlimit="10" stroke-linecap="round" stroke-linejoin="round"/>
	</g>
	<g id="arrowDown">
		<path d="M5.64998 0.5C6.0642 0.5 6.39998 0.835786 6.39998 1.25L6.39998 26.4539L9.28555 23.1561C9.55831 22.8444 10.0321 22.8128 10.3439 23.0856C10.6556 23.3583 10.6872 23.8322 10.4144 24.1439L5.65659 29.5814L0.791356 24.1504C0.514973 23.8419 0.541025 23.3678 0.849546 23.0914C1.15807 22.815 1.63223 22.841 1.90861 23.1496L4.89998 26.4888L4.89998 1.25C4.89998 0.835786 5.23577 0.5 5.64998 0.5Z" fill=""/>
	</g>
	<g id="arrowDown2" viewBox="0 0 12 41">
		<path d="M6.29956 0.399567C6.98369 0.399567 7.5383 0.95367 7.5383 1.63719L7.5383 35.175L9.52947 32.9014C9.97998 32.387 10.7626 32.3349 11.2774 32.785C11.7923 33.2351 11.8445 34.017 11.394 34.5314L6.31047 40.3359L1.11564 34.5422C0.65915 34.0331 0.70218 33.2507 1.21175 32.7946C1.72132 32.3385 2.50446 32.3815 2.96095 32.8906L5.06082 35.2325L5.06082 1.63719C5.06082 0.95367 5.61542 0.399567 6.29956 0.399567Z"/>
	</g>
	<g id="oven" viewBox="0 0 62 62">
		<path d="M22.2 29.5C22.2 29.0029 22.603 28.6 23.1 28.6H38.5C38.9971 28.6 39.4 29.0029 39.4 29.5V38.1C39.4 38.5971 38.9971 39 38.5 39H23.1C22.603 39 22.2 38.5971 22.2 38.1V29.5ZM24 30.4V37.2H37.6V30.4H24Z"/>
		<path d="M24.5 23.9C24.5 23.4029 24.903 23 25.4 23H36.2C36.6971 23 37.1 23.4029 37.1 23.9C37.1 24.3971 36.6971 24.8 36.2 24.8H25.4C24.903 24.8 24.5 24.3971 24.5 23.9Z"/>
		<path d="M18 19.9C18 19.4029 18.4029 19 18.9 19H42.8C43.2971 19 43.7 19.4029 43.7 19.9V42.6C43.7 43.0971 43.2971 43.5 42.8 43.5H18.9C18.4029 43.5 18 43.0971 18 42.6V19.9ZM19.8 20.8V41.7H41.9V20.8H19.8Z"/>
	</g>
	<g id="refrigerator" viewBox="0 0 62 62">
		<path d="M24.6 19C22.0523 19 20 21.0523 20 23.6V35.8C20 38.3477 22.0523 40.4 24.6 40.4H36.4C38.9477 40.4 41 38.3477 41 35.8V23.6C41 21.0523 38.9477 19 36.4 19H24.6ZM18 23.6C18 19.9477 20.9477 17 24.6 17H36.4C40.0523 17 43 19.9477 43 23.6V35.8C43 39.1122 40.5756 41.845 37.4 42.3252V43.8C37.4 44.3523 36.9523 44.8 36.4 44.8C35.8477 44.8 35.4 44.3523 35.4 43.8V42.4H25.6V43.8C25.6 44.3523 25.1523 44.8 24.6 44.8C24.0477 44.8 23.6 44.3523 23.6 43.8V42.3252C20.4244 41.845 18 39.1122 18 35.8V23.6ZM22.3 24.9C22.8523 24.9 23.3 25.3477 23.3 25.9V32.7C23.3 33.2523 22.8523 33.7 22.3 33.7C21.7477 33.7 21.3 33.2523 21.3 32.7V25.9C21.3 25.3477 21.7477 24.9 22.3 24.9Z"/>
	</g>
	<g id="snow" viewBox="0 0 62 62">
		<path d="M30.2003 17C30.7526 17 31.2003 17.4477 31.2003 18V43.3C31.2003 43.8523 30.7526 44.3 30.2003 44.3C29.648 44.3 29.2003 43.8523 29.2003 43.3V18C29.2003 17.4477 29.648 17 30.2003 17Z"/>
		<path d="M34.0665 18.7574C34.4214 19.1805 34.366 19.8113 33.9429 20.1662L30.8429 22.7662C30.4665 23.0819 29.9166 23.0774 29.5453 22.7557L26.5453 20.1557C26.128 19.794 26.0829 19.1624 26.4446 18.7451C26.8063 18.3277 27.4378 18.2826 27.8552 18.6443L30.2109 20.6859L32.6577 18.6338C33.0808 18.2789 33.7116 18.3342 34.0665 18.7574Z"/>
		<path d="M29.5601 38.5318C29.9263 38.2266 30.457 38.2223 30.828 38.5216L33.928 41.0216C34.3579 41.3683 34.4254 41.9978 34.0787 42.4278C33.732 42.8577 33.1024 42.9251 32.6725 42.5784L30.2107 40.593L27.8405 42.5682C27.4162 42.9218 26.7856 42.8645 26.432 42.4402C26.0785 42.0159 26.1358 41.3853 26.5601 41.0318L29.5601 38.5318Z"/>
		<path d="M18.3282 24.0107C18.5984 23.529 19.2079 23.3577 19.6896 23.6279L41.7896 36.0279C42.2712 36.2981 42.4426 36.9077 42.1724 37.3893C41.9021 37.871 41.2926 38.0423 40.8109 37.7721L18.7109 25.3721C18.2293 25.1019 18.0579 24.4923 18.3282 24.0107Z"/>
		<path d="M21.8236 21.5157C22.3672 21.4182 22.887 21.7797 22.9845 22.3233L23.6845 26.2233C23.7696 26.6974 23.5047 27.1648 23.0542 27.3353L19.3542 28.7353C18.8376 28.9307 18.2604 28.6704 18.065 28.1539C17.8695 27.6373 18.1298 27.0602 18.6464 26.8647L21.5692 25.7588L21.016 22.6767C20.9184 22.1331 21.28 21.6133 21.8236 21.5157Z"/>
		<path d="M42.4356 33.1461C42.631 33.6627 42.3707 34.2398 41.8542 34.4353L38.9313 35.5412L39.4845 38.6233C39.5821 39.1669 39.2205 39.6867 38.6769 39.7843C38.1333 39.8818 37.6136 39.5203 37.516 38.9767L36.816 35.0767C36.7309 34.6026 36.9959 34.1352 37.4464 33.9647L41.1464 32.5647C41.6629 32.3693 42.2401 32.6296 42.4356 33.1461Z"/>
		<path d="M42.0714 24.009C42.3426 24.4901 42.1724 25.1 41.6913 25.3712L19.6913 37.7712C19.2102 38.0423 18.6003 37.8721 18.3291 37.391C18.0579 36.9099 18.2281 36.3 18.7093 36.0288L40.7093 23.6288C41.1904 23.3577 41.8002 23.5279 42.0714 24.009Z"/>
		<path d="M38.6769 21.5157C39.2205 21.6133 39.5821 22.1331 39.4845 22.6767L38.9313 25.7588L41.8542 26.8647C42.3707 27.0602 42.631 27.6373 42.4356 28.1539C42.2401 28.6704 41.6629 28.9307 41.1464 28.7353L37.4464 27.3353C36.9959 27.1648 36.7309 26.6974 36.816 26.2233L37.516 22.3233C37.6136 21.7797 38.1333 21.4182 38.6769 21.5157Z"/>
		<path d="M18.065 33.1461C18.2604 32.6296 18.8376 32.3693 19.3542 32.5647L23.0542 33.9647C23.5047 34.1352 23.7696 34.6026 23.6845 35.0767L22.9845 38.9767C22.887 39.5203 22.3672 39.8818 21.8236 39.7843C21.28 39.6867 20.9184 39.1669 21.016 38.6233L21.5692 35.5412L18.6464 34.4353C18.1298 34.2398 17.8695 33.6627 18.065 33.1461Z"/>
	</g>	
	<g id="wood" viewBox="0 0 62 62">
		<path d="M30.3578 21.4037C29.9908 21.0367 29.9908 20.4862 30.3578 20.1193C30.7248 19.7523 31.2752 19.7523 31.6422 20.1193C32.0092 20.4862 32.0092 21.0367 31.6422 21.4037C31.2752 21.7706 30.7248 21.7706 30.3578 21.4037Z"/>
		<path d="M21.1835 45.4404C21.1835 45.2569 21 45.0734 21 44.7064V26.9083C21 26.3578 21.1835 25.9908 21.5505 25.6239C21.9174 25.2569 22.4679 25.0734 22.8349 25.0734C23.9358 25.0734 24.8532 24.8899 25.7706 24.156C26.8716 23.422 27.422 21.9541 27.422 20.6697C27.2385 19.7523 27.789 18.8349 28.3394 18.1009C29.0734 17.367 29.9908 17 31.0917 17C33.1101 17 34.7615 18.6514 34.7615 20.6697C34.7615 21.9541 35.3119 23.422 36.2294 24.156C36.9633 24.8899 38.0642 25.0734 39.1651 25.0734C39.7156 25.0734 40.0826 25.2569 40.4495 25.6239C40.8165 25.9908 41 26.5413 41 26.9083V44.7064C41 44.8899 40.8165 45.2569 40.8165 45.4404C40.8165 45.6239 40.4495 45.6239 40.0826 45.6239H21.9174C21.7339 45.6239 21.367 45.6239 21.1835 45.4404ZM22.8349 26.9083V43.789H39.1651V26.9083C37.6972 27.0917 36.2294 26.5413 34.945 25.6239C33.4771 24.3394 32.7431 22.5046 32.9266 20.6697C32.9266 20.3028 32.7431 19.7523 32.3761 19.3853C32.0092 19.0183 31.4587 18.8349 30.9083 18.8349C30.5413 18.8349 29.9908 19.0183 29.6239 19.3853C29.2569 19.7523 29.0734 20.1193 29.0734 20.6697C29.2569 22.5046 28.3394 24.3394 26.8716 25.6239C25.7706 26.5413 24.3028 27.0917 22.8349 26.9083Z"/>
		<path d="M27.789 30.3945C27.6055 30.211 27.422 30.0275 27.422 29.6606C27.422 29.1101 27.789 28.7431 28.3394 28.7431H33.4771C34.0275 28.7431 34.3945 29.1101 34.3945 29.6606C34.3945 30.211 34.0275 30.578 33.4771 30.578H28.3394C28.156 30.578 27.9725 30.578 27.789 30.3945Z"/>
		<path d="M27.789 35.5321C27.6055 35.3486 27.422 35.1651 27.422 34.9817C27.422 34.4312 27.789 34.0642 28.3394 34.0642H33.4771C34.0275 34.0642 34.3945 34.4312 34.3945 34.9817C34.3945 35.5321 34.0275 35.8991 33.4771 35.8991H28.3394C28.156 35.8991 27.9725 35.7156 27.789 35.5321Z"/>
		<path d="M27.789 40.8532C27.6055 40.6697 27.6055 40.4862 27.6055 40.1193C27.6055 39.5688 27.9725 39.2018 28.5229 39.2018H33.6606C34.211 39.2018 34.578 39.5688 34.578 40.1193C34.578 40.6697 34.211 41.0367 33.6606 41.0367H28.3395C28.156 41.0367 27.9725 41.0367 27.789 40.8532Z"/>
	</g>
	<g id="hat" viewBox="0 0 62 62">
		<path d="M31 16C27.093 16 23.7721 18.4418 22.4698 21.9256C19.3116 22.9023 17 25.8326 17 29.3488C17 32.8651 19.3442 35.7953 22.5349 36.7721V44.9767C22.5349 45.5302 22.9581 45.9535 23.5116 45.9535H38.4884C39.0419 45.9535 39.4651 45.5302 39.4651 44.9767V36.7721C42.6558 35.7953 45 32.8326 45 29.3488C45 25.8651 42.6884 22.9023 39.5302 21.9256C38.2279 18.4418 34.907 16 31 16ZM31 17.9535C34.2233 17.9535 36.9256 20.0698 37.8372 22.9674C37.9349 23.293 38.1953 23.5535 38.5535 23.6186C41.1256 24.2372 43.0465 26.5488 43.0465 29.3163C43.0465 32.1814 40.9953 34.5256 38.293 35.0465C37.8372 35.1442 37.5116 35.5349 37.5116 36.0233V38.7581H24.4884V36.0233C24.4884 35.5674 24.1628 35.1442 23.707 35.0465C21.0047 34.5256 18.9535 32.1814 18.9535 29.3163C18.9535 26.5488 20.8744 24.2372 23.4465 23.6186C23.7721 23.5535 24.0651 23.293 24.1628 22.9674C25.0744 20.0698 27.7767 17.9535 31 17.9535ZM24.4884 40.7442H37.5116V44H24.4884V40.7442Z"/>
	</g>
	<g id="clock">
		<path d="M17.8309 29.8H20C20.4971 29.8 20.9 30.2029 20.9 30.7C20.9 31.1971 20.4971 31.6 20 31.6H17.8309C18.2725 38.0072 23.3928 43.1275 29.8 43.5691V41.4C29.8 40.9029 30.2029 40.5 30.7 40.5C31.1971 40.5 31.6 40.9029 31.6 41.4V43.5691C38.0072 43.1275 43.1275 38.0072 43.5691 31.6H41.4C40.9029 31.6 40.5 31.1971 40.5 30.7C40.5 30.2029 40.9029 29.8 41.4 29.8H43.5691C43.1275 23.3928 38.0072 18.2725 31.6 17.8309V20C31.6 20.4971 31.1971 20.9 30.7 20.9C30.2029 20.9 29.8 20.4971 29.8 20V17.8309C23.3928 18.2725 18.2725 23.3928 17.8309 29.8ZM16 30.7C16 22.5814 22.5814 16 30.7 16C38.8186 16 45.4 22.5814 45.4 30.7C45.4 38.8186 38.8186 45.4 30.7 45.4C22.5814 45.4 16 38.8186 16 30.7ZM30.7 24.4C31.1971 24.4 31.6 24.8029 31.6 25.3V31.7C31.6 31.9833 31.4666 32.25 31.24 32.42L27.24 35.42C26.8424 35.7182 26.2782 35.6376 25.98 35.24C25.6818 34.8424 25.7624 34.2782 26.16 33.98L29.8 31.25V25.3C29.8 24.8029 30.2029 24.4 30.7 24.4Z"/>
	</g>
	<g id="fork" viewBox="0 0 62 62">
		<path d="M25.4273 43.544C25.0308 43.544 24.7224 43.2357 24.7224 42.8392V18.7203C24.7224 18.3238 25.0308 18.0154 25.4273 18.0154C25.8458 18.0154 26.1321 18.3238 26.1321 18.7203V42.8392C26.1542 43.2357 25.8458 43.544 25.4273 43.544Z"/>
		<path d="M25.4273 28.0595C22.9824 28.0595 21 26.0771 21 23.6322V18.7203C21 18.3238 21.3084 18.0154 21.7048 18.0154C22.1013 18.0154 22.4097 18.3238 22.4097 18.7203V23.6542C22.4097 25.3062 23.7533 26.6718 25.4273 26.6718C27.1013 26.6718 28.4449 25.3282 28.4449 23.6542V18.7203C28.4449 18.3238 28.7533 18.0154 29.1498 18.0154C29.5462 18.0154 29.8546 18.3238 29.8546 18.7203V23.6542C29.8987 26.0771 27.8943 28.0595 25.4273 28.0595Z"/>
		<path d="M40.2951 43.544C39.8986 43.544 39.5903 43.2357 39.5903 42.8392V18.7203C39.5903 18.3238 39.8986 18.0154 40.2951 18.0154C40.6916 18.0154 41 18.3238 41 18.7203V42.8392C41 43.2357 40.6696 43.544 40.2951 43.544Z"/>
		<path d="M41 38.9405H40.2952C38.5991 38.9405 37.2555 38.0594 36.4626 36.3854C34.1278 31.5617 36.5286 21.5837 38.6432 18.9185C39.37 18.0154 40.0308 17.9273 40.4493 18.0374L41 18.1696V38.9405ZM39.6123 19.9317C38.4009 21.7379 36.5066 27.8612 37.0132 32.8832C37.2775 35.5705 38.1586 37.0903 39.6123 37.4647V19.9317Z"/>
	</g>
	<g id="checkArrow" viewBox="0 0 20 19">
		<path d="M18.9833 1.10018C18.5325 0.265387 9.18278 4.42268 4.9754 11.3849C4.35764 10.2162 4.05712 9.56503 3.55624 8.74693C2.73814 7.41126 0 8.14588 0 10.1995C3.17223 18.7979 6.22759 19.6828 7.36292 16.1766C11.4367 5.47453 19.4341 1.95168 18.9833 1.10018Z"/>
	</g>
	<g id="info" viewBox="0 0 77 77">
		<path d="M39.5197 24C41.636 24 43.3291 25.746 43.3291 27.8623C43.3291 29.9787 41.5831 31.7246 39.5197 31.7246C37.4033 31.7246 35.6574 29.9787 35.6574 27.8094C35.6574 25.6931 37.4033 24 39.5197 24Z"/>
		<path d="M44.9692 49.8722C44.8634 50.1897 44.6518 50.56 44.4402 50.7717C43.0645 52.2002 41.3715 53.0467 39.3609 53.0467C38.4086 53.0467 37.5092 53.0467 36.5568 52.888C35.0225 52.6764 33.0648 50.7717 33.3294 48.7611C33.541 47.3855 33.7527 46.0099 33.9643 44.6343C34.3876 42.2534 34.8108 39.8196 35.2341 37.4387C35.2341 37.28 35.287 37.1213 35.287 36.9626C35.287 35.9573 34.9695 35.5869 33.9643 35.4811C33.541 35.4282 33.1178 35.3753 32.6945 35.2695C32.2183 35.1108 31.9538 34.6875 32.0067 34.3171C32.0596 33.8939 32.3241 33.6293 32.8532 33.5235C33.1178 33.4706 33.4352 33.4706 33.7527 33.4706C34.9166 33.4706 36.0806 33.4706 37.2975 33.4706C38.5673 33.4706 39.7842 33.4706 41.054 33.4706C41.9535 33.4706 42.4825 33.8939 42.4825 34.7933C42.4825 35.534 42.3767 36.2747 42.218 37.0155C41.7418 39.7667 41.2127 42.465 40.7366 45.2163C40.5778 46.1157 40.3662 47.0152 40.2604 47.9146C40.2075 48.3379 40.2604 48.814 40.3662 49.2373C40.5249 49.8193 40.9482 50.1368 41.5302 50.0838C42.0064 50.0309 42.4825 49.8722 42.9587 49.6606C43.3291 49.5019 43.6465 49.2373 44.0169 49.1315C44.6518 48.9199 45.128 49.2902 44.9692 49.8722Z"/>
	</g>
	<g id="filters" viewBox="0 0 24 19">
		<path d="M0.888889 4.11115H17.9556C18.4444 5.22226 19.7778 5.7556 20.8889 5.26671C21.4222 5.04449 21.8222 4.64449 22.0444 4.11115H23.1111C23.6 4.11115 24 3.71115 24 3.22226C24 2.73337 23.6 2.33337 23.1111 2.33337H22.0444C21.5556 1.22226 20.2222 0.688931 19.1111 1.17782C18.5778 1.40004 18.1778 1.80004 17.9556 2.33337H0.888889C0.4 2.33337 0 2.73337 0 3.22226C0 3.71115 0.4 4.11115 0.888889 4.11115Z"/>
		<path d="M23.1111 9.44449H7.82222C7.33333 8.33337 6 7.80004 4.88889 8.28893C4.35556 8.51115 3.95556 8.91115 3.73333 9.44449H0.888889C0.4 9.44449 0 9.84449 0 10.3334C0 10.8223 0.4 11.2223 0.888889 11.2223H3.73333C4.22222 12.3334 5.55556 12.8667 6.66667 12.3778C7.2 12.1556 7.6 11.7556 7.82222 11.2223H23.1111C23.6 11.2223 24 10.8223 24 10.3334C24 9.84449 23.6 9.44449 23.1111 9.44449Z"/>
		<path d="M23.1111 16.5556H15.3778C14.8889 15.4445 13.5556 14.9112 12.4444 15.4C11.9111 15.6223 11.5111 16.0223 11.2889 16.5556H0.888889C0.4 16.5556 0 16.9556 0 17.4445C0 17.9334 0.4 18.3334 0.888889 18.3334H11.2889C11.7778 19.4445 13.1111 19.9778 14.2222 19.4889C14.7556 19.2667 15.1556 18.8667 15.3778 18.3334H23.1111C23.6 18.3334 24 17.9334 24 17.4445C24 16.9556 23.6 16.5556 23.1111 16.5556Z"/>
	</g>
	<g id="car">
		<path d="M64.3804 69.8288C64.3802 69.8292 64.38 69.8295 64.3798 69.8299L56.4713 83.45H75.9501V68.45H66.8C65.7579 68.45 64.863 69.0022 64.3804 69.8288ZM78.4501 68.45V83.45H101.788L90.2372 69.4971L90.224 69.4809C89.6653 68.7826 88.927 68.45 88.1 68.45H78.4501ZM104.9 83.45H119C119.69 83.45 120.25 84.0097 120.25 84.7V98.5C120.25 99.1904 119.69 99.75 119 99.75H112.454C111.659 103.243 108.534 105.85 104.8 105.85C101.066 105.85 97.9411 103.243 97.1458 99.75H76.5971C75.8775 103.343 72.7049 106.05 68.9 106.05C65.0952 106.05 61.9226 103.343 61.203 99.75H54.3C53.6097 99.75 53.05 99.1904 53.05 98.5V84.7C53.05 84.4795 53.1084 84.263 53.2191 84.0723L62.2203 68.5702C63.1378 66.9974 64.8426 65.95 66.8 65.95H88.1C89.6696 65.95 91.1283 66.6145 92.1692 67.9105L104.663 83.0029C104.775 83.1386 104.854 83.291 104.9 83.45ZM61.1069 97.25C61.5759 93.3626 64.8862 90.35 68.9 90.35C72.9139 90.35 76.2242 93.3626 76.6931 97.25H96.9854C97.363 93.2664 100.718 90.15 104.8 90.15C108.883 90.15 112.237 93.2664 112.615 97.25H117.75V85.95H55.55V97.25H61.1069ZM104.8 92.65C101.845 92.65 99.4501 95.0453 99.4501 98C99.4501 100.955 101.845 103.35 104.8 103.35C107.755 103.35 110.15 100.955 110.15 98C110.15 95.0453 107.755 92.65 104.8 92.65ZM68.9 92.85C65.9453 92.85 63.55 95.2453 63.55 98.2C63.55 101.155 65.9453 103.55 68.9 103.55C71.8548 103.55 74.25 101.155 74.25 98.2C74.25 95.2453 71.8548 92.85 68.9 92.85Z"/>
	</g>
	<g id="storage" viewBox="0 0 173 173">
		<path d="M85.9668 52.2032C86.382 51.9323 86.918 51.9323 87.3332 52.2032L120.733 74.0032C121.087 74.234 121.3 74.6277 121.3 75.05V119.95C121.3 120.64 120.74 121.2 120.05 121.2H106.05C105.36 121.2 104.8 120.64 104.8 119.95V84.8H68.5V119.95C68.5 120.64 67.9404 121.2 67.25 121.2H53.25C52.5596 121.2 52 120.64 52 119.95V75.05C52 74.6277 52.2132 74.234 52.5668 74.0032L85.9668 52.2032ZM54.5 75.7268V118.7H66V83.55C66 82.8596 66.5596 82.3 67.25 82.3H106.05C106.74 82.3 107.3 82.8596 107.3 83.55V118.7H118.8V75.7268L86.65 54.7427L54.5 75.7268ZM80.5 68.85C80.5 68.1596 81.0596 67.6 81.75 67.6H91.55C92.2404 67.6 92.8 68.1596 92.8 68.85C92.8 69.5404 92.2404 70.1 91.55 70.1H81.75C81.0596 70.1 80.5 69.5404 80.5 68.85ZM80.5 73.55C80.5 72.8596 81.0596 72.3 81.75 72.3H91.55C92.2404 72.3 92.8 72.8596 92.8 73.55C92.8 74.2404 92.2404 74.8 91.55 74.8H81.75C81.0596 74.8 80.5 74.2404 80.5 73.55ZM80.4 97.25C80.4 96.5596 80.9596 96 81.65 96H92.85C93.5404 96 94.1 96.5596 94.1 97.25V107.4H98.05C98.7404 107.4 99.3 107.96 99.3 108.65V119.85C99.3 120.54 98.7404 121.1 98.05 121.1H86.85C86.8333 121.1 86.8166 121.1 86.8 121.099C86.7834 121.1 86.7667 121.1 86.75 121.1H75.55C74.8596 121.1 74.3 120.54 74.3 119.85V108.65C74.3 107.96 74.8596 107.4 75.55 107.4H80.4V97.25ZM85.5 109.9H76.8V118.6H85.5V109.9ZM88.1 118.6V109.9H96.8V118.6H88.1ZM91.6 107.2V98.5H82.9V107.2H91.6Z"/>
	</g>
	<g id="van" viewBox="0 0 173 173">
		<path d="M48 59.25C48 58.5596 48.5596 58 49.25 58H89.75C90.4404 58 91 58.5596 91 59.25V65.8H111.05C111.558 65.8 112.016 66.108 112.208 66.5789L120.185 86.1849L124.928 86.1002C125.263 86.0942 125.587 86.2232 125.826 86.4583C126.065 86.6933 126.2 87.0146 126.2 87.35V109.15C126.2 109.84 125.64 110.4 124.95 110.4H115.404C114.609 113.893 111.484 116.5 107.75 116.5C104.016 116.5 100.891 113.893 100.096 110.4H73.5664C72.8861 114.043 69.69 116.8 65.85 116.8C62.01 116.8 58.8139 114.043 58.1336 110.4H49.25C48.5596 110.4 48 109.84 48 109.15V59.25ZM50.5 96.7V107.9H58.0696C58.5828 104.061 61.8706 101.1 65.85 101.1C69.8294 101.1 73.1172 104.061 73.6304 107.9H99.9354C100.313 103.916 103.668 100.8 107.75 100.8C111.832 100.8 115.187 103.916 115.565 107.9H123.7V96.7H50.5ZM123.7 94.1V88.6225L119.372 88.6998C118.856 88.709 118.387 88.3996 118.192 87.9211L110.209 68.3H91V94.1H123.7ZM88.5 66.5593V60.5H50.5V94.1H88.4V67.05C88.4 66.8758 88.4356 66.7099 88.5 66.5593ZM96.2 73.75C96.2 73.0596 96.7596 72.5 97.45 72.5H106.65C107.178 72.5 107.649 72.8318 107.827 73.329L112.727 87.029C112.864 87.4119 112.806 87.8374 112.572 88.1698C112.338 88.5022 111.957 88.7 111.55 88.7H97.45C96.7596 88.7 96.2 88.1404 96.2 87.45V73.75ZM98.7 75V86.2H109.775L105.77 75H98.7ZM107.75 103.3C104.795 103.3 102.4 105.695 102.4 108.65C102.4 111.605 104.795 114 107.75 114C110.705 114 113.1 111.605 113.1 108.65C113.1 105.695 110.705 103.3 107.75 103.3ZM65.85 103.6C62.8953 103.6 60.5 105.995 60.5 108.95C60.5 111.905 62.8953 114.3 65.85 114.3C68.8047 114.3 71.2 111.905 71.2 108.95C71.2 105.995 68.8047 103.6 65.85 103.6Z"/>
	</g>
	<g id="pin" viewBox="0 0 173 173">
		<path d="M86.3 61.55C75.8904 61.55 67.45 69.9903 67.45 80.4C67.45 82.5863 67.9957 84.6109 68.8399 86.487L68.8446 86.4975C69.2413 87.401 70.3356 89.1689 71.8976 91.4875C73.4352 93.7698 75.3607 96.4918 77.3519 99.257C79.453 102.175 81.6431 105.162 83.5106 107.709C85.1588 109.957 86.5558 111.863 87.4185 113.075C87.8187 113.638 87.6872 114.418 87.1247 114.818C86.5622 115.219 85.7818 115.087 85.3815 114.525C84.5117 113.302 83.1346 111.424 81.5037 109.2C79.6476 106.669 77.4627 103.689 75.3231 100.718C73.3268 97.9456 71.3836 95.1989 69.8243 92.8843C68.2919 90.6097 67.0627 88.6552 66.5579 87.508C65.6033 85.3853 64.95 83.0116 64.95 80.4C64.95 68.6096 74.5097 59.05 86.3 59.05C86.9904 59.05 87.55 59.6096 87.55 60.3C87.55 60.9903 86.9904 61.55 86.3 61.55Z"/>
		<path d="M85.65 60.3C85.65 59.6096 86.2097 59.05 86.9 59.05C98.6904 59.05 108.25 68.6096 108.25 80.4C108.25 83.0117 107.597 85.3854 106.642 87.5081C106.138 88.6542 104.909 90.6141 103.377 92.8968C101.818 95.2192 99.8743 97.9754 97.8777 100.754C95.2558 104.404 92.5159 108.128 90.4279 110.966C89.3444 112.439 88.4365 113.673 87.8118 114.534C87.4064 115.093 86.6248 115.217 86.066 114.812C85.5072 114.406 85.3828 113.625 85.7882 113.066C86.4321 112.178 87.3511 110.929 88.4424 109.446C90.5225 106.619 93.2285 102.941 95.8474 99.2956C97.8383 96.5246 99.7637 93.7932 101.301 91.5032C102.863 89.1771 103.958 87.4021 104.355 86.4975L104.36 86.487C105.204 84.6109 105.75 82.5863 105.75 80.4C105.75 69.9903 97.3097 61.55 86.9 61.55C86.2097 61.55 85.65 60.9903 85.65 60.3Z"/>
		<path d="M86.4 74.95C83.3901 74.95 80.95 77.39 80.95 80.4C80.95 83.4099 83.3901 85.85 86.4 85.85C89.41 85.85 91.85 83.4099 91.85 80.4C91.85 77.39 89.41 74.95 86.4 74.95ZM78.45 80.4C78.45 76.0093 82.0093 72.45 86.4 72.45C90.7907 72.45 94.35 76.0093 94.35 80.4C94.35 84.7907 90.7907 88.35 86.4 88.35C82.0093 88.35 78.45 84.7907 78.45 80.4Z"/>
	</g>
	<g id="karotsi" viewBox="0 0 173 173">
		<path d="M70.3637 57.4718C70.8212 56.9547 71.6111 56.9063 72.1282 57.3638L79.9282 64.2638C80.1964 64.501 80.35 64.8419 80.35 65.2V114.35H112C112.69 114.35 113.25 114.91 113.25 115.6C113.25 116.29 112.69 116.85 112 116.85H79.1C78.4096 116.85 77.85 116.29 77.85 115.6V65.7631L70.4718 59.2362C69.9547 58.7788 69.9063 57.9889 70.3637 57.4718ZM83.45 75.9C83.45 75.2096 84.0096 74.65 84.7 74.65H91.4C92.0903 74.65 92.65 75.2096 92.65 75.9V85.65H100.7C101.39 85.65 101.95 86.2096 101.95 86.9V96.75H111.9C112.59 96.75 113.15 97.3096 113.15 98V109C113.15 109.69 112.59 110.25 111.9 110.25H84.7C84.0096 110.25 83.45 109.69 83.45 109V98C83.45 97.9833 83.4503 97.9666 83.451 97.95C83.4503 97.9334 83.45 97.9168 83.45 97.9V75.9ZM99.45 96.65V88.15H85.95V96.65H99.45ZM85.95 85.65H90.15V77.15H85.95V85.65ZM85.95 99.25V107.75H110.65V99.25H85.95ZM67.9 103.65C64.9453 103.65 62.55 106.045 62.55 109C62.55 111.955 64.9453 114.35 67.9 114.35C70.8547 114.35 73.25 111.955 73.25 109C73.25 106.045 70.8547 103.65 67.9 103.65ZM60.05 109C60.05 104.665 63.5646 101.15 67.9 101.15C72.2354 101.15 75.75 104.665 75.75 109C75.75 113.335 72.2354 116.85 67.9 116.85C63.5646 116.85 60.05 113.335 60.05 109Z"/>
	</g>
	<g id="ximio" viewBox="0 0 173 173">
		<path d="M94 76.3L93.5 76.1V63.1L94 62.9C96 62.2 97.4 60.3 97.4 58.1C97.4 55.3 95.1 53 92.3 53H80.7C77.9 53 75.6 55.3 75.6 58.1C75.6 60.2 77 62.2 79 62.9L79.5 63.1V76.1L79 76.3C70 79.4 64 88 64 97.5C64 109.9 74.1 120 86.5 120C98.9 120 109 109.9 109 97.5C109 88 103 79.4 94 76.3ZM78 58.2C78 56.7 79.2 55.5 80.7 55.5H92.3C93.8 55.5 95 56.7 95 58.2C95 59.7 93.8 60.9 92.3 60.9H80.7C79.2 60.8 78 59.6 78 58.2ZM100.7 111.7C98.9 113.6 96.7 115 94.3 116C91.8 117 89.2 117.6 86.5 117.6C83.8 117.6 81.1 117.1 78.7 116C76.3 115 74.2 113.5 72.3 111.7C70.5 109.8 69 107.7 68 105.3C67 102.8 66.4 100.2 66.4 97.5C66.4 93.3 67.7 89.2 70.2 85.8C71.4 84.1 72.8 82.7 74.4 81.5C76 80.3 77.9 79.3 79.8 78.6L81.9 77.9V63.2H91.1V77.7L93.2 78.4C95.1 79.1 96.9 80.1 98.6 81.3C100.2 82.5 101.7 84 102.8 85.6C105.3 89 106.6 93.1 106.6 97.3C106.6 100 106.1 102.7 105 105.1C104 107.7 102.6 109.9 100.7 111.7Z"/>
		<path d="M86.5 109.9C83.2 109.9 80.1 108.6 77.8 106.3C75.5 104 74.2 100.9 74.2 97.6C74.2 96.9 73.7 96.4 73 96.4C72.3 96.4 71.8 96.9 71.8 97.6C71.8 105.7 78.4 112.4 86.5 112.4C87.2 112.4 87.7 111.9 87.7 111.2C87.7 110.4 87.1 109.9 86.5 109.9Z"/>
	</g>
	<g id="tests1" viewBox="0 0 173 173">
		<path d="M86.6 125.2C107.9 125.2 125.2 107.9 125.2 86.6C125.2 65.3 107.9 48 86.6 48C65.3 48 48 65.3 48 86.6C48 107.9 65.3 125.2 86.6 125.2ZM60.1 61.3L61.7 62.9C60.8 64.2 60.4 65.8 60.1 67.3C59.8 68.6 59.5 69.8 59 70.7C58.5 71.6 57.6 72.4 56.7 73.3C55.3 74.6 53.9 75.9 53.4 77.8C52.9 79.6 53.5 81.4 54.1 83.2C54.4 84 54.6 84.9 54.7 85.6H50C50.2 76.1 54 67.7 60.1 61.3ZM123.3 85.5H118.7C118.8 84.7 119.1 83.9 119.3 83.1C119.9 81.3 120.4 79.5 120 77.7C119.5 75.8 118.1 74.5 116.7 73.2C115.8 72.3 114.9 71.5 114.4 70.6C113.9 69.7 113.6 68.5 113.3 67.2C113 65.7 112.6 64.1 111.7 62.8L113.3 61.2C119.2 67.7 123 76.1 123.3 85.5ZM113.3 111.8L111.7 110.2C112.5 109 112.9 107.5 113.2 106C113.5 104.7 113.8 103.5 114.3 102.6C114.8 101.7 115.7 100.9 116.6 100C118 98.7 119.4 97.4 119.9 95.5C120.4 93.7 119.8 91.9 119.2 90.1C118.9 89.2 118.6 88.2 118.5 87.4H123.2C123.1 96.9 119.3 105.4 113.3 111.8ZM61.9 105.6C61.6 104.3 61.3 102.9 60.6 101.7C59.9 100.5 58.9 99.6 57.9 98.7C56.6 97.6 55.5 96.5 55.1 95.2C54.8 94 55.2 92.5 55.7 90.9C56 89.8 56.4 88.7 56.5 87.6H84.2L62.9 108.8C62.5 107.9 62.2 106.8 61.9 105.6ZM55.8 82.5C55.3 80.9 54.8 79.4 55.2 78.2C55.6 76.9 56.7 75.8 58 74.7C59 73.8 60 72.8 60.7 71.7C61.4 70.5 61.7 69.1 62 67.8C62.3 66.5 62.6 65.3 63.1 64.4L84.3 85.6H56.5C56.4 84.5 56.1 83.5 55.8 82.5ZM111.3 67.7C111.6 69 111.9 70.4 112.6 71.6C113.3 72.8 114.3 73.7 115.3 74.6C116.5 75.7 117.7 76.8 118.1 78.1C118.4 79.3 118 80.8 117.5 82.4C117.2 83.4 116.9 84.4 116.7 85.4H89L110.2 64.2C110.8 65.2 111 66.4 111.3 67.7ZM117.5 90.7C118 92.3 118.5 93.8 118.1 95C117.7 96.3 116.6 97.4 115.3 98.5C114.3 99.4 113.3 100.4 112.6 101.5C111.9 102.7 111.6 104.1 111.3 105.4C111 106.6 110.8 107.8 110.3 108.7L89 87.4H116.7C116.8 88.6 117.2 89.7 117.5 90.7ZM85.7 116.7C84.6 116.8 83.6 117.2 82.5 117.5C80.9 118 79.4 118.5 78.2 118.1C76.9 117.7 75.8 116.6 74.7 115.3C73.8 114.3 72.8 113.3 71.7 112.6C70.5 111.9 69.1 111.6 67.8 111.3C66.5 111 65.3 110.7 64.4 110.2L85.8 88.8V116.7H85.7ZM87.6 88.8L109 110.2C108.1 110.8 106.9 111 105.6 111.3C104.3 111.6 102.9 111.9 101.7 112.6C100.5 113.3 99.6 114.3 98.7 115.3C97.6 116.6 96.5 117.7 95.2 118.1C94 118.4 92.5 118 90.9 117.5C89.9 117.2 88.8 116.9 87.7 116.7L87.6 88.8ZM87.6 84.2V56.5C88.7 56.4 89.7 56 90.8 55.7C92.4 55.2 93.9 54.7 95.1 55.1C96.4 55.5 97.5 56.6 98.6 57.9C99.5 58.9 100.5 59.9 101.6 60.6C102.8 61.3 104.2 61.6 105.5 61.9C106.7 62.2 107.9 62.4 108.8 62.9L87.6 84.2ZM85.7 84.2L64.4 62.9C65.3 62.4 66.4 62.2 67.6 61.9C68.9 61.6 70.3 61.3 71.5 60.6C72.7 59.9 73.6 58.9 74.5 57.9C75.6 56.6 76.7 55.5 78 55.1C78.5 55.1 78.8 55 79.1 55C80.1 55 81.3 55.4 82.5 55.7C83.5 56 84.6 56.3 85.7 56.5V84.2ZM62.9 111.6C64.2 112.5 65.7 112.9 67.3 113.2C68.6 113.5 69.8 113.8 70.7 114.3C71.6 114.8 72.4 115.7 73.3 116.6C74.6 118 75.9 119.4 77.8 119.9C78.3 120 78.7 120.1 79.2 120.1C80.5 120.1 81.9 119.7 83.2 119.3C84.1 119 85 118.8 85.8 118.6V123.2C76.4 123 67.8 119.1 61.5 113.1L62.9 111.6ZM87.6 118.7C88.4 118.8 89.3 119.1 90.2 119.4C92 120 93.8 120.5 95.6 120.1C97.5 119.6 98.8 118.2 100.1 116.8C101 115.9 101.8 115 102.7 114.5C103.6 114 104.8 113.7 106.1 113.4C107.6 113.1 109.2 112.7 110.5 111.8L112.1 113.4C105.6 119.2 97 123 87.6 123.3V118.7ZM110.2 61.5C109 60.7 107.5 60.4 106 60C104.7 59.7 103.5 59.4 102.6 58.9C101.7 58.4 100.9 57.5 100 56.6C98.7 55.2 97.4 53.8 95.5 53.3C93.7 52.8 91.9 53.4 90.1 54C89.2 54.3 88.3 54.5 87.5 54.7V50C96.9 50.2 105.3 54 111.7 60L110.2 61.5ZM85.7 54.6C84.9 54.5 84 54.2 83.1 53.9C81.3 53.3 79.5 52.8 77.7 53.2C75.8 53.7 74.5 55.1 73.2 56.5C72.3 57.4 71.5 58.3 70.6 58.8C69.7 59.3 68.5 59.6 67.2 59.9C65.7 60.2 64.2 60.6 63 61.4L61.5 60C67.9 54 76.3 50.2 85.7 50V54.6ZM54.6 87.4C54.5 88.3 54.2 89.2 53.9 90.1C53.3 91.9 52.8 93.7 53.2 95.5C53.7 97.4 55.1 98.7 56.5 100C57.4 100.9 58.3 101.7 58.8 102.6C59.3 103.5 59.6 104.7 59.9 106C60.2 107.5 60.6 109 61.4 110.2L60 111.8C54 105.4 50.2 96.9 50 87.5L54.6 87.4Z"/>
	</g>
	<g id="tests2" viewBox="0 0 173 173">
		<path fill-rule="evenodd" clip-rule="evenodd" d="M58.05 59.3C58.05 58.6096 58.6097 58.05 59.3 58.05H113.1C113.79 58.05 114.35 58.6096 114.35 59.3V113.1C114.35 113.79 113.79 114.35 113.1 114.35H59.3C58.6097 114.35 58.05 113.79 58.05 113.1V59.3ZM60.55 60.55V111.85H111.85V60.55H60.55Z"/>
		<path fill-rule="evenodd" clip-rule="evenodd" d="M68.35 73.7C68.35 73.0096 68.9097 72.45 69.6 72.45H102.6C103.29 72.45 103.85 73.0096 103.85 73.7C103.85 74.3903 103.29 74.95 102.6 74.95H69.6C68.9097 74.95 68.35 74.3903 68.35 73.7Z"/>
		<path fill-rule="evenodd" clip-rule="evenodd" d="M68.35 86.1C68.35 85.4096 68.9097 84.85 69.6 84.85H79.6C80.2904 84.85 80.85 85.4096 80.85 86.1C80.85 86.7903 80.2904 87.35 79.6 87.35H69.6C68.9097 87.35 68.35 86.7903 68.35 86.1Z"/>
		<path fill-rule="evenodd" clip-rule="evenodd" d="M68.35 98.5C68.35 97.8096 68.9097 97.25 69.6 97.25H79.6C80.2904 97.25 80.85 97.8096 80.85 98.5C80.85 99.1903 80.2904 99.75 79.6 99.75H69.6C68.9097 99.75 68.35 99.1903 68.35 98.5Z"/>
		<path fill-rule="evenodd" clip-rule="evenodd" d="M103.299 85.4639C103.872 85.8502 104.022 86.6271 103.636 87.1993L95.5361 99.1993C95.3189 99.5212 94.9643 99.7238 94.5767 99.7476C94.1891 99.7715 93.8125 99.6138 93.5574 99.321L88.1574 93.121C87.704 92.6004 87.7585 91.8108 88.2791 91.3574C88.7997 90.904 89.5892 90.9584 90.0427 91.479L94.3742 96.4522L101.564 85.8006C101.95 85.2284 102.727 85.0777 103.299 85.4639Z"/>
	</g>
	<g id="ereuna" viewBox="0 0 173 173">
		<path fill-rule="evenodd" clip-rule="evenodd" d="M85.8 56.55C69.0934 56.55 55.55 70.0934 55.55 86.8C55.55 103.507 69.0934 117.05 85.8 117.05C102.507 117.05 116.05 103.507 116.05 86.8C116.05 70.0934 102.507 56.55 85.8 56.55ZM53.05 86.8C53.05 68.7127 67.7127 54.05 85.8 54.05C103.887 54.05 118.55 68.7127 118.55 86.8C118.55 95.2158 115.376 102.89 110.159 108.691L118.884 117.416C119.372 117.904 119.372 118.696 118.884 119.184C118.396 119.672 117.604 119.672 117.116 119.184L108.418 110.486C102.539 116.101 94.5721 119.55 85.8 119.55C67.7127 119.55 53.05 104.887 53.05 86.8ZM85.8 71.85C82.1274 71.85 79.15 74.8273 79.15 78.5C79.15 82.1727 82.1274 85.15 85.8 85.15C89.4727 85.15 92.4501 82.1727 92.4501 78.5C92.4501 74.8273 89.4727 71.85 85.8 71.85ZM90.9973 86.0317C93.3854 84.3806 94.9501 81.623 94.9501 78.5C94.9501 73.4466 90.8535 69.35 85.8 69.35C80.7466 69.35 76.65 73.4466 76.65 78.5C76.65 81.6274 78.219 84.3883 80.6128 86.0386C74.6042 88.174 70.35 93.9155 70.35 100.6C70.35 101.29 70.9097 101.85 71.6 101.85C72.2904 101.85 72.85 101.29 72.85 100.6C72.85 93.4846 78.5961 87.65 85.8 87.65C93.0097 87.65 98.75 93.3903 98.75 100.6C98.75 101.29 99.3097 101.85 100 101.85C100.69 101.85 101.25 101.29 101.25 100.6C101.25 93.8368 96.9982 88.1464 90.9973 86.0317Z"/>
	</g>
</svg>
